# xmcd
#
# Track frame offsets:
#	150
#	11222
#	21124
#	30535
#	39140
#	52271
#	61405
#	72771
#	83481
#	94402
#	104475
#	114610
#
# Disc length: 1687 seconds
#
# Revision: 1
# Processed by: cddbd v1.5.2PL0 Copyright (c) Steve Scherf et al.
# Submitted via: audiograbber 1.83.01
#
DISCID=9a06950c
DTITLE=George Jones - Long Live King George
DYEAR=1965
DGENRE=Country
TTITLE0=Nothin' Can Stop My Love
TTITLE1=No Use To Cry
TTITLE2=No No Never
TTITLE3=If I Don't Love You Baby
TTITLE4=Seasons Of My Heart
TTITLE5=Jesus Wants Me
TTITLE6=You Gotta Be My Baby
TTITLE7=I Gotta Talk To Your Heart
TTITLE8=Tall Tall Trees
TTITLE9=I'm Ragged But Right
TTITLE10=Why Baby Why
TTITLE11=Please Take The Devil Out Of Me
EXTD=
EXTT0=
EXTT1=
EXTT2=
EXTT3=
EXTT4=
EXTT5=
EXTT6=
EXTT7=
EXTT8=
EXTT9=
EXTT10=
EXTT11=
PLAYORDER=
